<!DOCTYPE svg PUBLIC "-//W3C//DTD SVG 20010904//EN" "http://www.w3.org/TR/2001/REC-SVG-20010904/DTD/svg10.dtd">
<svg version="1.0" xmlns="http://www.w3.org/2000/svg" width="1000px" height="1000px" viewBox="0 0 10000 10000" preserveAspectRatio="xMidYMid meet">
<g id="layer101" fill="#b4d1e6" stroke="none">
 <path d="M3863 7343 c-31 -6 -82 -67 -114 -138 -22 -50 -110 -330 -475 -1520 l-25 -80 -462 -154 c-554 -185 -513 -169 -501 -181 6 -6 186 49 497 153 l487 162 1530 -971 c954 -606 1546 -976 1573 -984 53 -14 82 -3 89 34 11 55 120 -48 -1394 1315 -577 518 -1048 948 -1048 955 0 10 340 280 737 585 46 34 80 67 77 72 -3 6 -12 5 -20 -2 -12 -10 -21 -6 -47 18 -18 16 -111 101 -207 188 -96 87 -264 240 -373 339 -223 204 -252 223 -324 209z"/>
 <path d="M4981 6716 c-7 -8 -8 -17 -3 -20 6 -3 15 1 21 8 7 8 8 17 3 20 -6 3 -15 -1 -21 -8z"/>
 <path d="M4941 6686 c-7 -8 -8 -17 -3 -20 6 -3 15 1 21 8 7 8 8 17 3 20 -6 3 -15 -1 -21 -8z"/>
 <path d="M4896 6651 c-10 -11 -13 -22 -8 -25 5 -3 17 3 26 13 10 11 13 22 8 25 -5 3 -17 -3 -26 -13z"/>
 <path d="M4851 6616 c-7 -8 -8 -17 -3 -20 6 -3 15 1 21 8 7 8 8 17 3 20 -6 3 -15 -1 -21 -8z"/>
 <path d="M6905 5480 c-4 -6 -3 -16 3 -22 6 -6 12 -6 17 2 4 6 3 16 -3 22 -6 6 -12 6 -17 -2z"/>
 <path d="M6915 5430 c-4 -6 -3 -16 3 -22 6 -6 12 -6 17 2 4 6 3 16 -3 22 -6 6 -12 6 -17 -2z"/>
 <path d="M6924 5376 c-4 -9 -1 -22 5 -30 6 -7 8 -16 5 -19 -4 -3 -3 -14 1 -24 5 -10 7 -25 6 -35 -1 -9 2 -19 8 -22 5 -3 7 -15 4 -25 -3 -10 0 -22 5 -25 6 -3 8 -15 5 -25 -3 -10 0 -22 5 -25 6 -3 8 -15 5 -25 -3 -10 0 -22 5 -25 6 -3 8 -15 5 -25 -3 -10 0 -22 5 -25 6 -3 8 -15 5 -25 -3 -10 0 -22 5 -25 6 -3 8 -15 5 -25 -3 -10 0 -22 5 -25 6 -3 8 -15 5 -25 -3 -10 0 -22 5 -25 6 -3 8 -15 5 -25 -3 -10 0 -22 5 -25 6 -3 8 -15 5 -25 -3 -10 0 -22 5 -25 6 -3 8 -15 5 -25 -3 -10 0 -22 5 -25 6 -3 8 -15 5 -25 -3 -10 0 -22 6 -26 16 -9 26 22 12 39 -6 7 -8 16 -5 19 4 3 3 14 -1 24 -5 10 -7 25 -6 35 1 9 -2 19 -8 22 -5 3 -7 15 -4 25 3 10 0 22 -5 25 -6 3 -8 15 -5 25 3 10 0 22 -5 25 -6 3 -8 15 -5 25 3 10 0 22 -5 25 -6 3 -8 15 -5 25 3 10 0 22 -5 25 -6 3 -8 15 -5 25 3 10 0 22 -5 25 -6 3 -8 15 -5 25 3 10 0 22 -5 25 -6 3 -8 15 -5 25 3 10 0 22 -5 25 -6 3 -8 15 -5 25 3 10 0 22 -5 25 -6 3 -8 15 -5 25 3 10 0 22 -5 25 -6 3 -8 15 -5 25 3 10 0 22 -5 25 -6 3 -8 15 -5 25 6 23 -15 38 -23 17z"/>
 <path d="M2015 5190 c-86 -33 -150 -75 -139 -91 2 -4 21 3 40 16 30 20 76 40 162 70 13 5 8 25 -6 25 -4 -1 -29 -10 -57 -20z"/>
 <path d="M1811 5046 c-7 -8 -8 -17 -3 -20 6 -3 15 1 21 8 7 8 8 17 3 20 -6 3 -15 -1 -21 -8z"/>
 <path d="M1785 5000 c-4 -6 -3 -16 3 -22 6 -6 12 -6 17 2 4 6 3 16 -3 22 -6 6 -12 6 -17 -2z"/>
 <path d="M1785 4900 c-8 -14 23 -63 35 -55 4 3 2 19 -7 35 -16 33 -19 35 -28 20z"/>
 <path d="M1876 4792 c-3 -6 1 -15 8 -21 8 -7 17 -8 20 -3 3 6 -1 15 -8 21 -8 7 -17 8 -20 3z"/>
 <path d="M1925 4759 c-11 -17 173 -95 189 -79 6 6 3 12 -10 16 -10 4 -54 22 -96 40 -43 18 -80 28 -83 23z"/>
 <path d="M2135 4670 c-3 -6 4 -14 17 -19 160 -62 183 -70 192 -61 6 6 0 13 -15 19 -13 5 -59 23 -102 40 -88 35 -84 34 -92 21z"/>
 <path d="M7065 4670 c-4 -6 -3 -16 3 -22 6 -6 12 -6 17 2 4 6 3 16 -3 22 -6 6 -12 6 -17 -2z"/>
 <path d="M7075 4620 c-4 -6 -3 -16 3 -22 6 -6 12 -6 17 2 4 6 3 16 -3 22 -6 6 -12 6 -17 -2z"/>
 <path d="M2365 4581 c-7 -12 12 -24 25 -16 11 7 4 25 -10 25 -5 0 -11 -4 -15 -9z"/>
 <path d="M7085 4570 c-4 -6 -3 -16 3 -22 6 -6 12 -6 17 2 4 6 3 16 -3 22 -6 6 -12 6 -17 -2z"/>
 <path d="M2415 4560 c-3 -6 2 -13 12 -17 10 -4 56 -22 103 -40 53 -21 88 -29 94 -23 6 6 0 13 -15 19 -13 5 -59 23 -102 40 -88 35 -84 34 -92 21z"/>
 <path d="M7095 4520 c-4 -6 -3 -16 3 -22 6 -6 12 -6 17 2 4 6 3 16 -3 22 -6 6 -12 6 -17 -2z"/>
 <path d="M2645 4471 c-7 -12 12 -24 25 -16 11 7 4 25 -10 25 -5 0 -11 -4 -15 -9z"/>
 <path d="M7105 4470 c-4 -6 -3 -16 3 -22 6 -6 12 -6 17 2 4 6 3 16 -3 22 -6 6 -12 6 -17 -2z"/>
 <path d="M2695 4450 c-3 -6 6 -15 22 -21 15 -6 50 -19 78 -30 31 -12 53 -15 59 -9 6 6 0 13 -15 19 -13 5 -48 18 -77 30 -61 24 -59 24 -67 11z"/>
 <path d="M7115 4420 c-4 -6 -3 -16 3 -22 6 -6 12 -6 17 2 4 6 3 16 -3 22 -6 6 -12 6 -17 -2z"/>
 <path d="M2875 4381 c-7 -12 12 -24 25 -16 11 7 4 25 -10 25 -5 0 -11 -4 -15 -9z"/>
 <path d="M7125 4370 c-4 -6 -3 -16 3 -22 6 -6 12 -6 17 2 4 6 3 16 -3 22 -6 6 -12 6 -17 -2z"/>
 <path d="M2925 4360 c-3 -6 4 -14 17 -19 160 -62 183 -70 192 -61 6 6 0 13 -15 19 -13 5 -59 23 -102 40 -88 35 -84 34 -92 21z"/>
 <path d="M7135 4320 c-4 -6 -3 -16 3 -22 6 -6 12 -6 17 2 4 6 3 16 -3 22 -6 6 -12 6 -17 -2z"/>
 <path d="M3155 4271 c-7 -12 12 -24 25 -16 11 7 4 25 -10 25 -5 0 -11 -4 -15 -9z"/>
 <path d="M7145 4270 c-4 -6 -3 -16 3 -22 6 -6 12 -6 17 2 4 6 3 16 -3 22 -6 6 -12 6 -17 -2z"/>
 <path d="M3205 4250 c-3 -6 2 -13 12 -17 10 -4 56 -22 103 -40 53 -21 88 -29 94 -23 6 6 0 13 -15 19 -13 5 -59 23 -102 40 -88 35 -84 34 -92 21z"/>
 <path d="M7155 4220 c-4 -6 -3 -16 3 -22 6 -6 12 -6 17 2 4 6 3 16 -3 22 -6 6 -12 6 -17 -2z"/>
 <path d="M7165 4170 c-4 -6 -3 -16 3 -22 6 -6 12 -6 17 2 4 6 3 16 -3 22 -6 6 -12 6 -17 -2z"/>
 <path d="M3435 4160 c-3 -6 4 -14 17 -19 160 -62 183 -70 192 -61 6 6 0 13 -15 19 -13 5 -59 23 -102 40 -88 35 -84 34 -92 21z"/>
 <path d="M7174 4116 c-4 -9 -1 -22 5 -30 6 -7 8 -16 5 -19 -4 -3 -3 -14 1 -24 5 -10 7 -25 6 -35 -1 -9 2 -19 8 -22 5 -3 7 -15 4 -25 -3 -10 0 -22 5 -25 6 -3 8 -15 5 -25 -3 -10 0 -22 5 -25 6 -3 8 -15 5 -25 -3 -10 0 -22 5 -25 6 -3 8 -15 5 -25 -3 -10 0 -22 5 -25 6 -3 8 -15 5 -25 -3 -10 0 -22 5 -25 6 -3 8 -15 5 -25 -3 -10 0 -22 5 -25 6 -3 8 -15 5 -25 -3 -10 0 -22 5 -25 6 -3 8 -15 5 -25 -3 -10 0 -22 5 -25 6 -3 8 -15 5 -25 -3 -10 0 -22 5 -25 6 -3 8 -15 5 -25 -3 -10 0 -22 5 -25 6 -3 8 -15 5 -25 -3 -10 0 -22 5 -25 6 -3 8 -15 5 -25 -3 -10 0 -22 5 -25 6 -3 8 -15 5 -25 -3 -10 0 -22 6 -26 16 -9 26 22 12 39 -6 7 -8 16 -5 19 4 3 3 14 -1 24 -5 10 -7 25 -6 35 1 9 -2 19 -8 22 -5 3 -7 15 -4 25 3 10 0 22 -5 25 -6 3 -8 15 -5 25 3 10 0 22 -5 25 -6 3 -8 15 -5 25 3 10 0 22 -5 25 -6 3 -8 15 -5 25 3 10 0 22 -5 25 -6 3 -8 15 -5 25 3 10 0 22 -5 25 -6 3 -8 15 -5 25 3 10 0 22 -5 25 -6 3 -8 15 -5 25 3 10 0 22 -5 25 -6 3 -8 15 -5 25 3 10 0 22 -5 25 -6 3 -8 15 -5 25 3 10 0 22 -5 25 -6 3 -8 15 -5 25 3 10 0 22 -5 25 -6 3 -8 15 -5 25 3 10 0 22 -5 25 -6 3 -8 15 -5 25 3 10 0 22 -5 25 -6 3 -8 15 -5 25 6 23 -15 38 -23 17z"/>
 <path d="M3665 4071 c-7 -12 12 -24 25 -16 11 7 4 25 -10 25 -5 0 -11 -4 -15 -9z"/>
 <path d="M3715 4050 c-3 -6 2 -13 12 -17 10 -4 56 -22 103 -40 53 -21 88 -29 94 -23 6 6 0 13 -15 19 -13 5 -59 23 -102 40 -88 35 -84 34 -92 21z"/>
 <path d="M3945 3961 c-7 -12 12 -24 25 -16 11 7 4 25 -10 25 -5 0 -11 -4 -15 -9z"/>
 <path d="M3995 3940 c-3 -6 6 -15 22 -21 15 -6 50 -19 78 -30 31 -12 53 -15 59 -9 6 6 0 13 -15 19 -13 5 -48 18 -77 30 -61 24 -59 24 -67 11z"/>
 <path d="M4175 3871 c-7 -12 12 -24 25 -16 11 7 4 25 -10 25 -5 0 -11 -4 -15 -9z"/>
 <path d="M4225 3850 c-3 -6 2 -13 12 -17 10 -4 56 -22 103 -40 53 -21 88 -29 94 -23 6 6 0 13 -15 19 -13 5 -59 23 -102 40 -88 35 -84 34 -92 21z"/>
 <path d="M4455 3761 c-7 -12 12 -24 25 -16 11 7 4 25 -10 25 -5 0 -11 -4 -15 -9z"/>
 <path d="M4505 3740 c-3 -6 2 -13 12 -17 10 -4 56 -22 103 -40 53 -21 88 -29 94 -23 6 6 0 13 -15 19 -13 5 -59 23 -102 40 -88 35 -84 34 -92 21z"/>
 <path d="M4735 3650 c-3 -6 4 -14 17 -19 160 -62 183 -70 192 -61 6 6 0 13 -15 19 -13 5 -59 23 -102 40 -88 35 -84 34 -92 21z"/>
 <path d="M4965 3561 c-7 -12 12 -24 25 -16 11 7 4 25 -10 25 -5 0 -11 -4 -15 -9z"/>
 <path d="M5015 3540 c-3 -6 2 -13 12 -17 10 -4 56 -22 103 -40 53 -21 88 -29 94 -23 6 6 0 13 -15 19 -13 5 -59 23 -102 40 -88 35 -84 34 -92 21z"/>
 <path d="M5245 3450 c-3 -6 4 -14 17 -19 160 -62 183 -70 192 -61 6 6 0 13 -15 19 -13 5 -59 23 -102 40 -88 35 -84 34 -92 21z"/>
 <path d="M5475 3361 c-7 -12 12 -24 25 -16 11 7 4 25 -10 25 -5 0 -11 -4 -15 -9z"/>
 <path d="M5525 3340 c-3 -6 2 -13 12 -17 10 -4 56 -22 103 -40 53 -21 88 -29 94 -23 6 6 0 13 -15 19 -13 5 -59 23 -102 40 -88 35 -84 34 -92 21z"/>
 <path d="M7335 3310 c-4 -6 -3 -16 3 -22 6 -6 12 -6 17 2 4 6 3 16 -3 22 -6 6 -12 6 -17 -2z"/>
 <path d="M7345 3260 c-4 -6 -3 -16 3 -22 6 -6 12 -6 17 2 4 6 3 16 -3 22 -6 6 -12 6 -17 -2z"/>
 <path d="M5755 3251 c-7 -12 12 -24 25 -16 11 7 4 25 -10 25 -5 0 -11 -4 -15 -9z"/>
 <path d="M5805 3230 c-3 -6 2 -13 12 -17 10 -4 56 -22 103 -40 53 -21 88 -29 94 -23 6 6 0 13 -15 19 -13 5 -59 23 -102 40 -88 35 -84 34 -92 21z"/>
 <path d="M7355 3210 c-4 -6 -3 -16 3 -22 6 -6 12 -6 17 2 4 6 3 16 -3 22 -6 6 -12 6 -17 -2z"/>
 <path d="M7365 3160 c-4 -6 -3 -16 3 -22 6 -6 12 -6 17 2 4 6 3 16 -3 22 -6 6 -12 6 -17 -2z"/>
 <path d="M6035 3140 c-3 -6 2 -13 12 -17 10 -4 56 -22 103 -40 53 -21 88 -29 94 -23 6 6 0 13 -15 19 -13 5 -59 23 -102 40 -88 35 -84 34 -92 21z"/>
 <path d="M7375 3110 c-4 -6 -3 -16 3 -22 6 -6 12 -6 17 2 4 6 3 16 -3 22 -6 6 -12 6 -17 -2z"/>
 <path d="M7385 3060 c-4 -6 -3 -16 3 -22 6 -6 12 -6 17 2 4 6 3 16 -3 22 -6 6 -12 6 -17 -2z"/>
 <path d="M6265 3051 c-7 -12 12 -24 25 -16 11 7 4 25 -10 25 -5 0 -11 -4 -15 -9z"/>
 <path d="M6315 3030 c-3 -6 2 -13 12 -17 10 -4 56 -22 103 -40 53 -21 88 -29 94 -23 6 6 0 13 -15 19 -13 5 -59 23 -102 40 -88 35 -84 34 -92 21z"/>
 <path d="M7395 3010 c-4 -6 -3 -16 3 -22 6 -6 12 -6 17 2 4 6 3 16 -3 22 -6 6 -12 6 -17 -2z"/>
 <path d="M7405 2960 c-4 -6 -3 -16 3 -22 6 -6 12 -6 17 2 4 6 3 16 -3 22 -6 6 -12 6 -17 -2z"/>
 <path d="M6545 2940 c-3 -6 4 -14 17 -19 160 -62 183 -70 192 -61 6 6 0 13 -15 19 -13 5 -59 23 -102 40 -88 35 -84 34 -92 21z"/>
 <path d="M7414 2906 c-4 -10 -2 -22 4 -28 8 -8 13 -7 18 6 4 10 2 22 -4 28 -8 8 -13 7 -18 -6z"/>
 <path d="M6775 2851 c-7 -12 12 -24 25 -16 11 7 4 25 -10 25 -5 0 -11 -4 -15 -9z"/>
 <path d="M7414 2833 c-3 -10 -10 -29 -15 -42 -7 -16 -6 -28 0 -34 7 -7 15 1 26 26 18 43 19 54 5 62 -6 3 -13 -2 -16 -12z"/>
 <path d="M6825 2830 c-3 -6 4 -14 17 -19 160 -62 183 -70 192 -61 6 6 0 13 -15 19 -13 5 -59 23 -102 40 -88 35 -84 34 -92 21z"/>
 <path d="M7055 2740 c-3 -5 -3 -11 2 -12 4 0 13 -2 18 -3 6 -1 23 -7 39 -14 32 -13 66 -7 50 9 -5 5 -24 11 -42 13 -18 2 -35 7 -39 10 -9 10 -21 9 -28 -3z"/>
 <path d="M7336 2728 c-10 -6 -46 -11 -80 -12 -34 0 -62 -5 -64 -11 -3 -12 93 -19 117 -9 9 4 22 8 30 10 19 4 34 21 24 27 -5 3 -17 1 -27 -5z"/>
 </g>
<g id="layer102" fill="#37b6e5" stroke="none">
 <path d="M6755 9914 c-311 -45 -447 -81 -655 -172 -489 -215 -870 -580 -1109 -1063 -248 -500 -290 -1108 -115 -1650 61 -191 114 -303 232 -492 296 -477 794 -837 1343 -971 168 -41 311 -56 522 -56 342 0 588 48 873 170 566 243 1025 735 1222 1310 163 477 158 1026 -14 1489 -245 657 -803 1172 -1472 1362 -199 56 -314 71 -567 74 -126 2 -243 1 -260 -1z m491 -779 c28 -16 49 -39 63 -68 21 -43 21 -53 21 -775 0 -522 3 -733 11 -738 6 -4 131 113 298 279 239 238 293 287 328 297 89 27 133 0 330 -202 138 -141 155 -175 134 -258 -11 -41 -68 -101 -694 -727 -673 -673 -683 -682 -729 -688 -95 -14 -69 -36 -786 679 -369 367 -672 677 -683 698 -23 45 -25 108 -4 152 9 18 84 100 168 183 126 126 159 153 195 163 24 6 51 9 60 6 9 -2 31 -7 47 -11 22 -5 110 -86 317 -293 190 -188 291 -283 298 -276 6 6 11 282 12 755 l3 746 27 35 c49 64 67 68 317 68 221 0 225 0 267 -25z"/>
 <path d="M3435 9760 c-4 -6 -10 -8 -15 -5 -5 3 -11 1 -14 -4 -4 -5 -2 -12 3 -15 5 -4 12 -2 16 4 4 6 10 8 15 5 5 -3 11 -1 14 4 4 5 2 12 -3 15 -5 4 -12 2 -16 -4z"/>
 <path d="M2805 9506 c-11 -8 -14 -16 -8 -19 6 -4 18 0 28 7 11 8 14 16 8 19 -6 4 -18 0 -28 -7z"/>
 <path d="M2555 9376 c-11 -8 -14 -16 -8 -19 6 -4 18 0 28 7 11 8 14 16 8 19 -6 4 -18 0 -28 -7z"/>
 <path d="M1756 8821 c-10 -11 -13 -22 -8 -25 5 -3 17 3 26 13 10 11 13 22 8 25 -5 3 -17 -3 -26 -13z"/>
 <path d="M1596 8681 c-10 -11 -13 -22 -8 -25 5 -3 17 3 26 13 10 11 13 22 8 25 -5 3 -17 -3 -26 -13z"/>
 <path d="M1321 8406 c-18 -19 -29 -36 -23 -39 5 -4 23 9 41 27 18 19 29 36 23 39 -5 4 -23 -9 -41 -27z"/>
 <path d="M1226 8301 c-10 -11 -13 -22 -8 -25 5 -3 17 3 26 13 10 11 13 22 8 25 -5 3 -17 -3 -26 -13z"/>
 <path d="M1071 8116 c-7 -8 -8 -17 -3 -20 6 -3 15 1 21 8 7 8 8 17 3 20 -6 3 -15 -1 -21 -8z"/>
 <path d="M9327 7503 c-4 -6 0 -18 7 -28 8 -11 16 -14 19 -8 4 6 0 18 -7 28 -8 11 -16 14 -19 8z"/>
 <path d="M9377 7413 c-4 -6 0 -18 7 -28 8 -11 16 -14 19 -8 4 6 0 18 -7 28 -8 11 -16 14 -19 8z"/>
 <path d="M430 7071 c-6 -12 -6 -22 -1 -26 6 -3 15 3 21 14 6 12 6 22 1 26 -6 3 -15 -3 -21 -14z"/>
 <path d="M9686 6731 c-4 -5 -2 -12 4 -16 6 -4 8 -10 5 -15 -3 -5 -1 -11 4 -14 5 -4 12 -2 15 3 4 5 2 12 -4 16 -6 4 -8 10 -5 15 3 5 1 11 -4 14 -5 4 -12 2 -15 -3z"/>
 <path d="M9739 3426 c-1 -3 -2 -9 -3 -13 -1 -5 -5 -14 -9 -20 -5 -7 -5 -13 -1 -13 3 0 1 -6 -5 -14 -8 -10 -9 -16 -1 -21 5 -3 11 -4 11 -1 4 16 7 26 9 31 1 3 3 8 4 13 1 4 5 12 9 19 4 6 3 14 -3 18 -5 3 -11 4 -11 1z"/>
 <path d="M276 3321 c-4 -5 -2 -12 4 -16 6 -4 8 -10 5 -15 -3 -5 -1 -11 4 -14 5 -4 12 -2 15 3 4 5 2 12 -4 16 -6 4 -8 10 -5 15 3 5 1 11 -4 14 -5 4 -12 2 -15 -3z"/>
 <path d="M547 2703 c-4 -6 0 -18 7 -28 8 -11 16 -14 19 -8 4 6 0 18 -7 28 -8 11 -16 14 -19 8z"/>
 <path d="M1256 1672 c-3 -6 1 -15 8 -21 8 -7 17 -8 20 -3 3 6 -1 15 -8 21 -8 7 -17 8 -20 3z"/>
 <path d="M8671 1616 c-7 -8 -8 -17 -3 -20 6 -3 15 1 21 8 7 8 8 17 3 20 -6 3 -15 -1 -21 -8z"/>
 <path d="M1377 1543 c-4 -6 11 -27 32 -47 21 -21 41 -34 44 -29 4 6 -11 27 -32 47 -21 21 -41 34 -44 29z"/>
 <path d="M1467 1453 c-4 -6 11 -27 32 -47 21 -21 41 -34 44 -29 4 6 -11 27 -32 47 -21 21 -41 34 -44 29z"/>
 <path d="M8371 1316 c-7 -8 -8 -17 -3 -20 6 -3 15 1 21 8 7 8 8 17 3 20 -6 3 -15 -1 -21 -8z"/>
 <path d="M1646 1282 c-3 -6 1 -15 8 -21 8 -7 17 -8 20 -3 3 6 -1 15 -8 21 -8 7 -17 8 -20 3z"/>
 <path d="M2825 491 c-3 -6 3 -15 14 -21 12 -6 22 -6 26 -1 3 6 -3 15 -14 21 -12 6 -22 6 -26 1z"/>
 <path d="M7055 446 c-11 -8 -14 -16 -8 -19 6 -4 18 0 28 7 11 8 14 16 8 19 -6 4 -18 0 -28 -7z"/>
 <path d="M6586 263 c-4 -5 -12 -9 -17 -9 -5 -1 -11 -3 -14 -4 -3 -1 -9 -3 -15 -4 -5 0 -10 -4 -10 -8 0 -5 0 -11 0 -14 0 -4 7 -1 15 6 8 7 15 9 15 5 0 -4 6 -3 13 3 6 6 15 11 20 11 8 1 11 11 5 17 -3 2 -8 1 -12 -3z"/>
 </g>
<g id="layer103" fill="#f9fcfd" stroke="none">
 <path d="M6725 9164 c-42 -21 -81 -61 -100 -99 -13 -29 -15 -125 -15 -766 l0 -733 -287 286 c-208 207 -296 288 -318 293 -16 4 -38 9 -47 11 -9 3 -36 0 -60 -6 -36 -10 -70 -38 -205 -173 -89 -88 -169 -175 -178 -193 -21 -44 -19 -107 4 -152 11 -21 318 -335 693 -708 727 -726 701 -703 796 -689 46 6 56 15 739 698 635 635 693 696 704 737 22 84 5 116 -144 268 -209 213 -250 239 -340 212 -35 -10 -89 -59 -329 -298 l-288 -287 0 731 0 731 -23 44 c-14 27 -42 57 -71 77 l-48 32 -227 0 c-185 0 -231 -3 -256 -16z"/>
 <path d="M4985 6716 c-12 -6 -36 -26 -55 -43 -19 -18 -41 -33 -48 -33 -7 0 -15 -7 -18 -15 -4 -8 -12 -15 -20 -15 -7 0 -17 -6 -21 -13 -4 -8 -141 -117 -303 -242 -495 -384 -515 -400 -515 -421 0 -13 395 -374 1200 -1099 660 -595 1210 -1095 1221 -1113 21 -31 22 -66 2 -78 -5 -3 -30 -1 -54 6 -28 8 -611 373 -1574 984 l-1529 971 -588 -196 c-323 -108 -595 -199 -603 -202 -8 -3 -41 -16 -72 -27 -31 -12 -71 -31 -90 -43 -18 -13 -40 -26 -49 -29 -23 -9 -72 -84 -88 -135 -14 -41 -13 -45 15 -100 35 -67 84 -105 199 -152 44 -18 94 -39 110 -46 17 -7 64 -25 105 -40 41 -15 95 -37 120 -48 55 -23 65 -27 160 -62 41 -16 95 -37 120 -48 60 -25 76 -32 135 -52 28 -10 70 -27 95 -37 55 -24 65 -28 160 -63 41 -16 95 -37 120 -48 55 -23 65 -27 160 -62 41 -16 93 -36 115 -45 22 -10 74 -30 115 -45 41 -15 95 -37 120 -48 55 -23 65 -27 160 -62 41 -16 95 -37 120 -48 60 -25 76 -32 135 -52 28 -10 70 -27 95 -37 55 -24 65 -28 160 -63 41 -16 95 -37 120 -48 55 -23 65 -27 160 -62 41 -16 93 -36 115 -45 22 -10 74 -30 115 -45 41 -15 95 -37 120 -48 55 -23 65 -27 160 -62 41 -16 93 -36 115 -45 22 -10 74 -30 115 -45 41 -15 95 -37 120 -48 55 -23 65 -27 160 -62 41 -16 95 -37 120 -48 55 -23 65 -27 160 -62 41 -16 93 -36 115 -45 22 -10 74 -30 115 -45 41 -15 95 -37 120 -48 55 -23 65 -27 160 -62 41 -16 93 -36 115 -45 22 -10 74 -30 115 -45 41 -15 95 -37 120 -48 55 -23 65 -27 160 -62 41 -16 93 -36 115 -45 57 -25 79 -33 86 -32 4 1 22 -3 40 -9 52 -16 176 -11 218 9 48 23 75 78 73 152 -1 50 -4 74 -17 135 -6 25 -13 62 -20 100 -8 38 -15 75 -20 100 -5 20 -10 46 -20 95 -3 14 -34 169 -70 344 -36 176 -63 322 -60 324 3 3 0 11 -6 18 -6 8 -9 20 -6 29 4 8 1 17 -4 21 -6 3 -9 15 -6 25 3 10 1 21 -4 24 -5 4 -9 16 -8 28 0 12 -3 33 -6 47 -3 14 -7 39 -10 55 -4 17 -8 39 -10 50 -3 11 -7 31 -10 45 -3 14 -7 36 -10 50 -3 14 -7 39 -10 55 -4 17 -8 39 -10 50 -3 11 -7 34 -10 50 -8 38 -15 75 -20 100 -3 11 -7 31 -10 45 -3 14 -34 168 -70 344 -35 175 -62 322 -60 327 3 4 1 10 -5 14 -5 3 -10 16 -9 28 0 12 -3 34 -6 49 -3 16 -7 39 -9 53 -7 45 -24 55 -87 55 -83 0 -266 27 -388 56 -325 80 -625 233 -894 456 -198 165 -360 364 -511 630 -31 56 -35 58 -61 44z"/>
 </g>
<g id="layer104" fill="#000000" stroke="none">
 <path d="M4570 9985 c-799 -51 -1634 -340 -2342 -812 -87 -58 -158 -109 -158 -114 0 -5 -5 -9 -10 -9 -11 0 -175 -122 -203 -151 -10 -11 -21 -19 -25 -19 -5 0 -35 -26 -67 -57 -33 -32 -63 -58 -67 -58 -4 0 -27 -19 -50 -42 -184 -181 -312 -311 -363 -368 -33 -38 -73 -82 -90 -98 -16 -17 -29 -34 -28 -38 2 -5 -8 -16 -22 -25 -14 -9 -25 -20 -25 -24 0 -4 -18 -27 -40 -51 -22 -24 -40 -49 -40 -55 0 -7 -7 -14 -15 -18 -8 -3 -15 -11 -15 -18 0 -7 -9 -19 -20 -26 -12 -7 -18 -17 -15 -21 2 -5 -2 -11 -10 -15 -8 -3 -15 -12 -15 -21 0 -8 -4 -15 -9 -15 -9 0 -187 -261 -184 -270 1 -3 -6 -14 -16 -25 -65 -72 -291 -511 -391 -760 -158 -393 -281 -859 -319 -1215 -46 -416 -41 -1042 10 -1405 115 -810 451 -1607 965 -2286 488 -644 1165 -1189 1894 -1524 448 -206 997 -365 1430 -414 386 -43 1021 -41 1380 5 329 42 745 151 1090 284 659 255 1223 623 1731 1130 576 575 968 1205 1226 1974 203 604 274 1220 228 1976 -20 340 -62 590 -154 927 -120 437 -300 856 -538 1252 -87 143 -116 182 -119 154 0 -5 -4 -60 -8 -123 -22 -335 -88 -593 -221 -865 -360 -734 -1114 -1215 -1907 -1215 -70 0 -129 -4 -132 -9 -3 -5 111 -598 254 -1319 143 -720 260 -1327 260 -1348 0 -53 -28 -104 -70 -126 -40 -21 -122 -24 -202 -7 -51 11 -5059 1970 -5185 2029 -87 40 -128 74 -153 126 -27 55 -21 104 20 166 56 83 82 94 764 324 350 117 645 218 656 224 11 6 25 33 35 66 81 280 460 1494 480 1540 52 117 99 150 178 122 24 -9 160 -126 403 -348 202 -184 387 -352 410 -373 l44 -38 101 77 c56 43 103 83 106 89 2 7 -14 52 -35 101 -256 582 -242 1287 39 1853 177 359 423 641 744 855 152 101 338 195 490 246 126 42 118 48 -134 106 -447 101 -974 135 -1541 99z"/>
 </g>

</svg>