<!DOCTYPE svg PUBLIC "-//W3C//DTD SVG 20010904//EN" "http://www.w3.org/TR/2001/REC-SVG-20010904/DTD/svg10.dtd">
<svg version="1.0" xmlns="http://www.w3.org/2000/svg" width="1600px" height="1600px" viewBox="0 0 16000 16000" preserveAspectRatio="xMidYMid meet">
<g id="layer101" fill="#645d5d" stroke="none">
 <path d="M11265 15980 c-27 -5 -82 -9 -120 -9 -163 -2 -497 -80 -757 -177 -281 -104 -677 -336 -903 -528 -269 -228 -461 -441 -640 -712 -262 -394 -427 -829 -497 -1304 -19 -135 -22 -195 -22 -465 -1 -362 16 -516 85 -795 93 -372 235 -687 459 -1020 267 -395 614 -719 1037 -968 422 -248 865 -388 1343 -423 214 -16 595 -6 768 21 1042 158 1920 798 2398 1750 177 352 270 677 320 1119 18 157 15 521 -5 676 -65 507 -182 858 -430 1289 -31 53 -163 247 -220 321 -182 238 -458 499 -716 677 -294 203 -594 345 -930 443 -206 59 -303 76 -610 105 -126 11 -485 11 -560 0z m640 -1101 c50 -28 113 -99 130 -147 13 -40 15 -178 15 -1113 0 -766 3 -1070 11 -1075 6 -4 184 166 423 404 277 276 426 418 456 433 57 29 149 32 200 5 48 -25 476 -452 503 -501 29 -56 29 -164 0 -220 -13 -24 -410 -428 -1000 -1017 l-978 -977 -59 -16 c-69 -20 -126 -15 -189 16 -29 14 -344 323 -1009 987 -1052 1052 -1009 1004 -1010 1119 -1 94 28 135 264 370 232 230 267 255 363 256 99 1 111 -9 555 -453 227 -226 416 -408 421 -403 5 5 10 492 11 1083 l3 1075 31 55 c17 30 47 67 66 83 68 55 84 57 438 54 280 -2 329 -4 355 -18z"/>
 </g>
<g id="layer102" fill="#ffffff" stroke="none">
 <path d="M11166 14906 c-57 -21 -105 -64 -140 -126 l-31 -55 -5 -1069 -5 -1070 -398 398 c-443 442 -441 441 -562 440 -118 -1 -141 -16 -383 -257 -247 -246 -267 -276 -265 -392 2 -135 -58 -68 1011 -1137 694 -693 980 -972 1012 -988 61 -31 151 -37 226 -16 l59 17 978 977 c579 579 987 993 1000 1017 31 58 31 202 0 260 -27 49 -455 476 -503 501 -54 29 -181 26 -240 -5 -30 -15 -180 -157 -447 -424 l-403 -402 0 1066 c0 1194 5 1118 -73 1197 -77 80 -60 77 -447 79 -277 2 -353 0 -384 -11z"/>
 <path d="M8568 11203 c-469 -356 -917 -702 -1393 -1074 -88 -69 -266 -208 -395 -309 -358 -280 -370 -290 -370 -308 0 -9 6 -27 13 -38 6 -12 144 -140 306 -285 356 -319 772 -693 1351 -1214 591 -532 1178 -1060 1655 -1489 439 -393 559 -507 581 -548 14 -27 10 -82 -9 -105 -21 -28 -139 1 -226 56 -176 111 -612 387 -641 406 -19 13 -159 101 -310 197 -334 212 -1346 855 -1672 1062 -347 221 -569 361 -826 524 -123 78 -631 401 -752 478 -274 175 -545 347 -597 378 l-62 38 -328 -110 c-180 -61 -642 -216 -1025 -346 -403 -135 -726 -250 -767 -271 -222 -117 -308 -322 -204 -487 55 -89 176 -158 473 -274 107 -41 339 -132 515 -201 176 -69 358 -140 405 -159 47 -18 141 -55 210 -82 150 -59 926 -363 1025 -402 98 -38 820 -321 995 -390 80 -31 278 -109 440 -173 162 -63 417 -163 565 -221 149 -59 367 -144 485 -191 118 -46 325 -128 460 -181 135 -53 295 -115 355 -139 61 -23 256 -100 435 -170 179 -70 357 -140 395 -155 39 -15 279 -110 535 -210 256 -100 497 -195 535 -210 39 -15 187 -73 330 -129 303 -119 419 -151 552 -151 191 0 281 73 291 235 3 59 -10 140 -86 520 -50 248 -163 817 -252 1265 -151 761 -212 1067 -533 2685 l-123 620 -79 18 c-142 32 -347 97 -484 154 -660 270 -1207 742 -1562 1349 -52 90 -77 124 -89 124 -3 0 -58 -39 -122 -87z"/>
 </g>
<g id="layer103" fill="#18e1b4" stroke="none">
 <path d="M7235 15983 c-713 -56 -1550 -258 -2251 -544 -82 -33 -169 -69 -194 -78 -64 -26 -333 -154 -480 -230 -982 -505 -1874 -1236 -2577 -2111 -353 -441 -623 -861 -888 -1385 -301 -598 -452 -1016 -661 -1835 -30 -120 -100 -471 -113 -570 -62 -486 -71 -643 -72 -1225 0 -527 12 -767 52 -1095 96 -775 343 -1609 696 -2350 134 -280 310 -606 431 -795 161 -251 229 -351 378 -550 395 -532 931 -1084 1484 -1526 91 -72 181 -142 200 -155 19 -13 67 -47 105 -74 114 -83 489 -330 500 -330 3 0 29 -15 58 -33 183 -117 636 -350 892 -459 245 -104 368 -151 625 -239 264 -91 733 -220 895 -248 28 -5 133 -24 235 -43 464 -88 806 -112 1540 -106 311 3 614 10 690 16 612 55 1173 172 1775 371 659 217 1295 529 1910 937 628 417 1255 986 1745 1585 107 131 159 196 185 231 11 15 63 87 116 160 835 1153 1342 2498 1470 3898 8 82 14 372 16 738 4 492 1 633 -11 768 -9 91 -16 187 -16 214 0 75 -55 441 -101 670 -81 410 -177 750 -337 1200 -77 213 -193 483 -328 755 -140 283 -197 387 -332 610 -30 50 -64 106 -75 125 -32 55 -78 111 -87 105 -4 -2 -10 -28 -14 -57 -13 -103 -67 -349 -101 -461 -147 -483 -418 -942 -775 -1311 -490 -506 -1122 -831 -1822 -936 -264 -40 -717 -37 -978 7 -104 17 -130 14 -130 -14 0 -15 132 -686 405 -2058 46 -231 156 -787 245 -1235 89 -448 202 -1017 252 -1265 95 -476 99 -514 63 -586 -62 -123 -202 -158 -420 -105 -55 14 -217 71 -360 127 -143 56 -291 114 -330 129 -38 15 -279 110 -535 210 -256 100 -496 195 -535 210 -38 15 -216 85 -395 155 -179 70 -374 147 -435 170 -60 24 -220 86 -355 139 -135 53 -342 135 -460 181 -118 47 -336 132 -485 191 -148 58 -403 158 -565 221 -162 64 -360 142 -440 173 -175 69 -897 352 -995 390 -99 39 -875 343 -1025 402 -69 27 -163 64 -210 82 -47 19 -229 90 -405 159 -176 69 -408 160 -515 201 -359 140 -464 212 -510 350 -37 115 71 281 241 371 62 33 370 139 1795 618 l301 101 49 -31 c50 -31 478 -303 594 -377 121 -77 629 -400 752 -478 257 -163 479 -303 826 -524 326 -207 1338 -850 1672 -1062 151 -96 291 -184 310 -197 29 -19 465 -295 641 -406 92 -58 240 -89 267 -56 20 24 25 111 9 143 -23 43 -137 151 -582 550 -477 429 -1064 957 -1655 1489 -419 377 -725 652 -1356 1219 -164 148 -300 276 -302 286 -3 17 26 41 568 464 113 88 268 210 345 270 78 61 204 159 280 218 77 59 235 181 350 269 116 89 271 208 345 265 315 239 353 270 364 286 8 14 4 30 -18 75 -156 315 -260 649 -308 988 -19 136 -22 203 -22 450 0 248 3 312 22 445 150 1029 774 1903 1707 2391 74 39 137 74 140 79 10 16 -26 29 -220 78 -352 89 -928 192 -1078 192 -29 0 -119 7 -202 15 -204 20 -1219 19 -1480 -2z"/>
 </g>

</svg>